# xmcd
#
# Track frame offsets:
#	150
#	20172
#	38900
#	56990
#	78550
#	96063
#	115788
#	136938
#	152500
#	166650
#	184800
#	202688
#	221838
#	242225
#
# Disc length: 3451 seconds
#
# Revision: 0
# Processed by: cddbd v1.5.2PL0 Copyright (c) Steve Scherf et al.
# Submitted via: EasyCDDAExtractor 12.0.0.1
#
DISCID=bb0d790e
DTITLE=mc the max - RETURNS Part 2
DYEAR=2007
DGENRE=ballad
TTITLE0=intro
TTITLE1=Returns
TTITLE2=가슴아 그만해
TTITLE3=사랑이 끝나면(MV MIX)
TTITLE4=사랑이 사랑을 버리다
TTITLE5=HOPE
TTITLE6=모래시계
TTITLE7=너만 있으면...
TTITLE8=Oh!Piz (feat. 럼블피쉬 최진이)
TTITLE9=눈을 감아도
TTITLE10=Rain
TTITLE11=Moment
TTITLE12=What a Wonderful World
TTITLE13=눈물
EXTD=
EXTT0=
EXTT1=
EXTT2=
EXTT3=
EXTT4=
EXTT5=
EXTT6=
EXTT7=
EXTT8=
EXTT9=
EXTT10=
EXTT11=
EXTT12=
EXTT13=
PLAYORDER=
